<?xml version="1.0" encoding="UTF-8" standalone="no"?>
<svg
   xmlns:dc="http://purl.org/dc/elements/1.1/"
   xmlns:cc="http://creativecommons.org/ns#"
   xmlns:rdf="http://www.w3.org/1999/02/22-rdf-syntax-ns#"
   xmlns:svg="http://www.w3.org/2000/svg"
   xmlns="http://www.w3.org/2000/svg"
   xmlns:sodipodi="http://sodipodi.sourceforge.net/DTD/sodipodi-0.dtd"
   xmlns:inkscape="http://www.inkscape.org/namespaces/inkscape"
   enable-background="new 0 0 64 64"
   viewBox="0 0 64 64"
   version="1.1"
   id="svg94"
   sodipodi:docname="soil-01.svg"
   inkscape:version="0.92.2 5c3e80d, 2017-08-06">
  <metadata
     id="metadata100">
    <rdf:RDF>
      <cc:Work
         rdf:about="">
        <dc:format>image/svg+xml</dc:format>
        <dc:type
           rdf:resource="http://purl.org/dc/dcmitype/StillImage" />
      </cc:Work>
    </rdf:RDF>
  </metadata>
  <defs
     id="defs98">
    <inkscape:path-effect
       effect="bspline"
       id="path-effect937"
       is_visible="true"
       weight="33.333333"
       steps="2"
       helper_size="0"
       apply_no_weight="true"
       apply_with_weight="true"
       only_selected="false" />
    <inkscape:path-effect
       effect="bspline"
       id="path-effect933"
       is_visible="true"
       weight="33.333333"
       steps="2"
       helper_size="0"
       apply_no_weight="true"
       apply_with_weight="true"
       only_selected="false" />
    <inkscape:path-effect
       effect="spiro"
       id="path-effect929"
       is_visible="true" />
    <inkscape:path-effect
       effect="spiro"
       id="path-effect925"
       is_visible="true" />
    <filter
       inkscape:collect="always"
       style="color-interpolation-filters:sRGB"
       id="filter6721"
       x="-0.39047277"
       width="1.7809455"
       y="-0.78943871"
       height="2.5788774">
      <feGaussianBlur
         inkscape:collect="always"
         stdDeviation="8.1663213"
         id="feGaussianBlur6723" />
    </filter>
  </defs>
  <sodipodi:namedview
     pagecolor="#ffffff"
     bordercolor="#666666"
     borderopacity="1"
     objecttolerance="10"
     gridtolerance="10"
     guidetolerance="10"
     inkscape:pageopacity="0"
     inkscape:pageshadow="2"
     inkscape:window-width="1290"
     inkscape:window-height="681"
     id="namedview96"
     showgrid="false"
     inkscape:zoom="5.2149125"
     inkscape:cx="28.891393"
     inkscape:cy="35.653719"
     inkscape:window-x="111"
     inkscape:window-y="29"
     inkscape:window-maximized="0"
     inkscape:current-layer="svg94" />
  <path
     d="m0 16v32l32 16 32-16v-32z"
     fill="#825012"
     id="path2" />
  <path
     d="m0 16v5l32 16 32-16v-5z"
     opacity=".2"
     id="path4" />
  <path
     d="m0 16v2l32 16 32-16v-2z"
     opacity=".3"
     id="path6" />
  <path
     d="m64 16v32l-32 16v-32z"
     opacity=".29"
     id="path8" />
  <g
     id="g18"
     fill="#9c3">
    <path
       d="m32 0 32 16-32 16-32-16z"
       id="path10" />
    <path
       d="m32 0 32 16-32 16-32-16z"
       id="path12" />
    <path
       d="m32 0 32 16-32 16-32-16z"
       id="path14" />
    <path
       d="m32 0 32 16-32 16-32-16z"
       id="path16" />
  </g>
  <g
     opacity=".3"
     id="g88">
    <path
       d="m46.4 51.6c-.3.2-.6.6-.6.9s.3.5.6.3.6-.6.6-.9-.3-.5-.6-.3z"
       id="path20" />
    <path
       d="m41.2 53.4c.4-.2.7-.7.7-1.1s-.3-.6-.7-.4-.7.7-.7 1.1.3.6.7.4z"
       id="path22" />
    <path
       d="m44.7 48.1c.3-.1.5-.5.5-.7 0-.3-.2-.4-.5-.2-.3.1-.5.5-.5.7s.2.3.5.2z"
       id="path24" />
    <path
       d="m52.6 30.1c0-.4-.3-.6-.7-.4s-.7.7-.7 1.1.3.6.7.4.7-.7.7-1.1z"
       id="path26" />
    <path
       d="m54.3 36.9c0-.7-.6-1-1.3-.7-.7.4-1.3 1.2-1.3 2 0 .7.6 1 1.3.7.7-.4 1.3-1.3 1.3-2z"
       id="path28" />
    <path
       d="m40.9 46.9c0-.1-.1-.1-.1-.1-.1 0-.1.1-.1.2s.1.1.1.1.1-.1.1-.2z"
       id="path30" />
    <path
       d="m36 57.2c0-.1-.1-.1-.1-.1-.1 0-.1.1-.1.2s.1.1.1.1c.1 0 .1-.1.1-.2z"
       id="path32" />
    <path
       d="m58.9 33.5c-.2.1-.4.3-.4.5s.2.3.4.2.4-.3.4-.5-.2-.3-.4-.2z"
       id="path34" />
    <path
       d="m57 45.5c-.2.1-.4.3-.4.5s.2.3.4.2.4-.3.4-.5c-.1-.2-.2-.3-.4-.2z"
       id="path36" />
    <path
       d="m61.8 27.1c-.3.2-.6.6-.6.9s.3.5.6.3.6-.6.6-.9-.2-.4-.6-.3z"
       id="path38" />
    <path
       d="m48.3 32.6c0 .1.1.1.1.1.1 0 .1-.1.1-.2s-.1-.1-.1-.1c-.1.1-.1.2-.1.2z"
       id="path40" />
    <path
       d="m43.9 33.5c.4-.2.7-.7.7-1.1s-.3-.6-.7-.4-.7.7-.7 1.1.3.6.7.4z"
       id="path42" />
    <path
       d="m44.1 40.7c.4-.2.7-.7.7-1.1s-.3-.6-.7-.4-.7.7-.7 1.1c0 .5.3.6.7.4z"
       id="path44" />
    <path
       d="m41.1 43.7c-.4.2-.7.7-.7 1.1s.3.6.7.4.7-.7.7-1.1-.3-.6-.7-.4z"
       id="path46" />
    <path
       d="m37.8 37.8c-.4.2-.7.7-.7 1.1s.3.6.7.4.7-.7.7-1.1c0-.5-.3-.6-.7-.4z"
       id="path48" />
    <path
       d="m48.1 47c0-.3-.3-.5-.6-.3s-.6.6-.6.9.3.5.6.3.6-.6.6-.9z"
       id="path50" />
    <path
       d="m53.4 43.6c0-.3-.3-.5-.6-.3s-.6.6-.6.9.3.5.6.3.6-.6.6-.9z"
       id="path52" />
    <path
       d="m36.6 48.7c0-.3-.3-.5-.6-.3s-.6.6-.6.9.3.5.6.3.6-.6.6-.9z"
       id="path54" />
    <path
       d="m56.7 38c.4-.2.7-.7.7-1.1s-.3-.6-.7-.4-.7.7-.7 1.1.3.6.7.4z"
       id="path56" />
    <path
       d="m39.9 57c.4-.2.7-.7.7-1.1s-.3-.6-.7-.4-.7.7-.7 1.1c0 .5.4.6.7.4z"
       id="path58" />
    <path
       d="m44.7 49.7c-.2.1-.4.3-.4.5s.2.3.4.2.4-.3.4-.5-.2-.3-.4-.2z"
       id="path60" />
    <path
       d="m51.5 47.1c-.2.1-.4.3-.4.5s.2.3.4.2.4-.3.4-.5-.2-.3-.4-.2z"
       id="path62" />
    <path
       d="m48 38.5c-.3.2-.6.6-.6.9s.3.5.6.3.6-.6.6-.9-.2-.5-.6-.3z"
       id="path64" />
    <path
       d="m54.8 28.4c0 .3.3.5.6.3s.6-.6.6-.9-.3-.5-.6-.3c-.3.1-.6.5-.6.9z"
       id="path66" />
    <path
       d="m48.6 42.1c0 .3.3.5.6.3s.6-.6.6-.9-.3-.5-.6-.3c-.3.1-.6.5-.6.9z"
       id="path68" />
    <path
       d="m36.7 54.5c.3-.1.5-.5.5-.7 0-.3-.2-.4-.5-.2-.3.1-.5.5-.5.7s.2.3.5.2z"
       id="path70" />
    <path
       d="m48.1 34.4c0-.4-.3-.6-.7-.4s-.7.7-.7 1.1.3.6.7.4.7-.7.7-1.1z"
       id="path72" />
    <path
       d="m54.6 32.5c-.1 0-.2.2-.2.2s.1.1.2.1.2-.2.2-.2c-.1-.1-.1-.1-.2-.1z"
       id="path74" />
    <path
       d="m41.5 50.9c-.1 0-.2.2-.2.2 0 .1.1.1.2.1s.2-.2.2-.2c-.1-.1-.1-.2-.2-.1z"
       id="path76" />
    <path
       d="m54.5 34.2c0-.1-.1-.2-.2-.1s-.2.2-.2.3.1.2.2.1.2-.2.2-.3z"
       id="path78" />
    <path
       d="m56.5 42.5c0-.1-.1-.2-.2-.1s-.2.2-.2.3.1.2.2.1.2-.2.2-.3z"
       id="path80" />
    <path
       d="m62.7 34.5c0-.1-.1-.2-.2-.1s-.2.2-.2.3.1.2.2.1.2-.2.2-.3z"
       id="path82" />
    <path
       d="m45.5 41.9c0-.1-.1-.2-.2-.1s-.2.2-.2.3.1.2.2.1c.1 0 .2-.2.2-.3z"
       id="path84" />
    <path
       d="m42.9 35.6c-.3.1-.5.5-.5.7 0 .3.2.4.5.2.3-.1.5-.5.5-.7s-.2-.3-.5-.2z"
       id="path86" />
  </g>
  <path
     d="m26.2 37.8c.4.2.7 0 .7-.4s-.3-.9-.7-1.1-.7 0-.7.4.3.9.7 1.1zm-19.1-7.6c.4.2.7 0 .7-.4s-.3-.9-.7-1.1-.7 0-.7.4.3.9.7 1.1zm15.2 14.2c-.4-.2-.7 0-.7.4s.3.9.7 1.1.7 0 .7-.4-.3-.9-.7-1.1zm-.3-7.6c.4.2.7 0 .7-.4s-.3-.9-.7-1.1-.7 0-.7.4.3.9.7 1.1zm-3.9 17.4c-.4-.2-.7 0-.7.4s.3.9.7 1.1.7 0 .7-.4-.3-.8-.7-1.1zm3 2.2c-.1 0-.2 0-.2.1s.1.2.2.3c.1 0 .2 0 .2-.1s-.1-.3-.2-.3zm-6-8.2c-.1 0-.2 0-.2.1s.1.2.2.3c.1 0 .2 0 .2-.1-.1-.2-.1-.3-.2-.3zm1.1 1c-.3-.2-.6 0-.6.3s.3.8.6.9c.3.2.6 0 .6-.3s-.3-.7-.6-.9zm10.1-5.4c-.3-.2-.6 0-.6.3s.3.8.6.9c.3.2.6 0 .6-.3.1-.3-.2-.7-.6-.9zm-20.4-8.8c-.3-.2-.6 0-.6.3s.3.8.6.9c.3.2.6 0 .6-.3s-.3-.7-.6-.9zm13.1 5.5c-.3-.2-.6 0-.6.3s.3.8.6.9c.3.2.6 0 .6-.3s-.3-.7-.6-.9zm-10.7-.8c-.1 0-.1 0-.1.1s.1.2.1.2c.1 0 .1 0 .1-.1.1-.1 0-.2-.1-.2zm9.2 4.2c-.1 0-.1 0-.1.1s.1.2.1.2c.1 0 .1 0 .1-.1 0 0-.1-.1-.1-.2zm-5.3-4.5c-.4-.2-.7 0-.7.4s.3.9.7 1.1.7 0 .7-.4-.3-.9-.7-1.1zm-4.1-6.8c-.7-.4-1.4-.1-1.4.7 0 .7.6 1.7 1.4 2 .7.4 1.4.1 1.4-.7 0-.7-.6-1.6-1.4-2zm9.4-1.1c-.3-.2-.6 0-.6.3s.3.8.6.9c.3.2.6 0 .6-.3s-.3-.7-.6-.9zm-1.8 5.9c-.2-.1-.4 0-.4.2s.2.5.4.6.4 0 .4-.2-.2-.5-.4-.6zm-4.7-.4c-.1 0-.1 0-.1.1s.1.2.1.2c.1 0 .1 0 .1-.1 0 0 0-.1-.1-.2zm-8.5 1.8c-.3-.2-.6 0-.6.3s.3.8.6.9c.3.2.6 0 .6-.3s-.3-.7-.6-.9zm-1.1 6.2c-.1 0-.1 0-.1.1s.1.2.1.2c.1 0 .1 0 .1-.1s-.1-.2-.1-.2zm9.3 2.2c-.4-.2-.7 0-.7.4s.3.9.7 1.1.7 0 .7-.4-.3-.9-.7-1.1zm-1.9-4.5c-.2-.1-.4 0-.4.2s.2.5.4.6.4 0 .4-.2-.2-.5-.4-.6zm-4.8-.4c-.1 0-.1 0-.1.1s.1.2.1.2c.1 0 .1 0 .1-.1.1-.1 0-.1-.1-.2zm11.7-10c-.3-.2-.6 0-.6.3s.3.8.6.9c.3.2.6 0 .6-.3.1-.4-.2-.8-.6-.9zm8.2 6c0-.3-.2-.6-.5-.7s-.5 0-.5.2c0 .3.2.6.5.7.3.2.5.1.5-.2zm2.1 16.9c.2.1.4 0 .4-.2s-.2-.5-.4-.6-.4 0-.4.2c.1.2.2.5.4.6zm4.6 2.6c0-.4-.3-.9-.7-1.1s-.7 0-.7.4.3.9.7 1.1c.3.2.7 0 .7-.4zm-.5-19.1c-.3-.1-.5 0-.5.2s.2.6.5.7.5 0 .5-.2-.2-.6-.5-.7zm-27.9-11.3c-.3-.1-.5 0-.5.2s.2.6.5.7.5 0 .5-.2-.2-.6-.5-.7zm25.9 21.5c-.4-.2-.7 0-.7.4s.3.9.7 1.1.7 0 .7-.4-.3-.9-.7-1.1zm-6.7 4.5c-.2-.1-.4 0-.4.2s.2.5.4.6.4 0 .4-.2-.2-.5-.4-.6zm-7.4-9c-.2-.1-.4 0-.4.2s.2.5.4.6.4 0 .4-.2c-.1-.2-.2-.5-.4-.6zm5.1 2.9c-.7-.4-1.4-.1-1.4.7 0 .7.6 1.7 1.4 2 .7.4 1.4.1 1.4-.7-.1-.7-.7-1.6-1.4-2zm-16.9-14.8c-.1 0-.1 0-.1.1s.1.2.1.2c.1 0 .1 0 .1-.1.1 0 0-.1-.1-.2z"
     opacity=".3"
     id="path90" />
  <path
     d="m0 16 32 16v32l-32-16z"
     id="path92"
     opacity=".11" />
  <path
     style="fill:#322d32;fill-opacity:0.5482234;stroke:none;stroke-width:1.03077638px;stroke-linecap:butt;stroke-linejoin:miter;stroke-opacity:1"
     d="m 0,17 v 11.830268 c 0,0 -0.37774959,3.169459 2.8835155,5.672623 C 4.455595,35.709531 8.9676667,36.761437 12.2,36.55 c 3.232333,-0.211437 5.835426,2.982695 7.601093,4.577507 1.765667,1.594813 4.825502,6.410324 9.346088,10.066512 4.520586,3.656187 9.205372,-0.496438 11.505466,-4.638141 2.300093,-4.141705 9.175866,-2.229048 13.897899,-0.03034 4.759471,2.216138 7.832006,-1.023154 8.921276,-4.416041 C 64.335245,39.420081 64,17 64,17 L 32,34 Z"
     id="path941"
     inkscape:connector-curvature="0"
     sodipodi:nodetypes="ccsssssssccc" />
  <path
     style="opacity:0.674;fill:#4c9a23;fill-opacity:1;stroke:#005e00;stroke-width:0.5;stroke-linecap:butt;stroke-linejoin:miter;stroke-miterlimit:4;stroke-dasharray:none;stroke-opacity:1;filter:url(#filter6721)"
     d="m 11.888983,23.730868 c 2.110334,-0.89587 9.780645,1.085627 11.88898,0.191758 2.108336,-0.89387 1.918578,-2.046417 4.410429,-1.72582 2.491851,0.320596 1.151547,-3.133044 4.218671,-3.45164 3.067125,-0.318597 1.662901,-8.6301 2.876367,-9.7796461 1.830166,-1.237736 8.504989,-0.191263 8.820857,-0.9587891 0.446435,-0.9577889 17.978135,8.7603002 17.978135,8.7603002 l -32,16 z"
     id="path1053"
     inkscape:connector-curvature="0"
     sodipodi:nodetypes="csssccccc"
     transform="matrix(1.0382038,0,0,0.6746064,-3.6316663,5.9630337)" />
</svg>
