<?xml version="1.0" standalone="no"?><!DOCTYPE svg PUBLIC "-//W3C//DTD SVG 1.1//EN" "http://www.w3.org/Graphics/SVG/1.1/DTD/svg11.dtd"><svg class="icon" height="512" viewBox="0 0 1024 1024" version="1.1" xmlns="http://www.w3.org/2000/svg"><path d="M127.274667 861.141333c56.106667 3.584 116.650667-39.338667 140.8-58.666666 24.32 18.261333 84.394667 58.837333 138.752 58.837333h0.341333c51.029333-0.170667 99.456-38.186667 123.050667-59.904 17.237333 22.186667 53.248 56.832 110.634666 59.904 59.648 3.072 102.613333-32.597333 122.922667-53.930667 20.736 20.266667 63.872 54.186667 119.381333 54.186667 1.066667 0 2.176 0 3.285334-0.085333 78.549333-1.92 131.712-67.242667 133.973333-70.016a16.64 16.64 0 0 0-2.602667-23.338667 16.64 16.64 0 0 0-23.296 2.688c-0.469333 0.512-45.568 56.064-108.885333 57.6h-2.474667c-61.184 0-106.581333-55.68-107.050666-56.234667a16.64 16.64 0 0 0-26.453334 0.768c-0.426667 0.597333-42.794667 58.837333-107.050666 55.338667-63.872-3.328-94.037333-58.069333-95.274667-60.416a16.512 16.512 0 0 0-26.922667-3.328c-0.597333 0.682667-58.069333 63.573333-113.322666 63.744h-0.256c-56.533333 0-127.744-59.178667-128.469334-59.818667a16.64 16.64 0 0 0-21.76 0.426667c-0.725333 0.682667-70.272 62.762667-127.232 59.264-56.448-3.584-99.413333-56.661333-99.84-57.258667a16.554667 16.554667 0 1 0-25.941333 20.565334c2.090667 2.56 52.352 65.066667 123.690667 69.674666z" fill="#54689C" /><path d="M994.517333 873.216c-0.469333 0.597333-45.568 56.064-108.885333 57.685333h-2.474667c-61.184 0-106.581333-55.68-107.050666-56.234666a16.64 16.64 0 0 0-26.453334 0.768c-0.426667 0.597333-42.794667 58.837333-107.050666 55.338666-63.872-3.413333-94.037333-58.154667-95.274667-60.416a16.512 16.512 0 0 0-26.922667-3.328c-0.597333 0.682667-58.069333 63.573333-113.322666 63.744h-0.256c-56.533333 0-127.744-59.264-128.469334-59.818666a16.682667 16.682667 0 0 0-21.76 0.426666c-0.725333 0.682667-70.272 62.762667-127.232 59.264-56.448-3.669333-99.413333-56.746667-99.84-57.258666a16.554667 16.554667 0 1 0-25.941333 20.565333c2.090667 2.688 52.352 65.152 123.690667 69.674667 56.106667 3.669333 116.650667-39.253333 140.8-58.581334 24.32 18.261333 84.394667 58.837333 138.752 58.837334h0.341333c51.029333-0.170667 99.456-38.186667 123.050667-59.904 17.237333 22.101333 53.248 56.832 110.634666 59.904 59.648 2.986667 102.613333-32.597333 122.922667-53.930667 20.736 20.266667 63.872 54.186667 119.381333 54.186667l3.285334-0.085334c78.549333-1.92 131.712-67.242667 133.973333-70.016a16.64 16.64 0 0 0-25.898667-20.821333zM307.754667 733.781333v-286.677333h46.933333V401.536H183.552v45.568h44.16v286.677333zM564.138667 733.781333v-286.677333h46.933333V401.536h-171.093333v45.568h44.16v286.677333zM820.522667 733.781333v-286.677333h46.933333V401.536H696.32v45.568h44.202667v286.677333zM922.965333 360.832l-376.874666-300.885333h-41.173334L128.042667 360.832V371.2h794.922666v-10.368z m-401.536-52.437333a58.965333 58.965333 0 1 1-0.085333-117.930667 58.965333 58.965333 0 0 1 0.085333 117.930667z" fill="#54689C" /></svg>